<?xml version="1.0" encoding="iso-8859-1"?>
<!-- Uploaded to: SVG Repo, www.svgrepo.com, Generator: SVG Repo Mixer Tools -->
<svg height="800px" width="800px" version="1.1" id="Layer_1" xmlns="http://www.w3.org/2000/svg" xmlns:xlink="http://www.w3.org/1999/xlink" 
	 viewBox="0 0 511.999 511.999" xml:space="preserve">
<path style="fill:#E18CAF;" d="M511.999,81.835c-31.656,12.014-80.756,10.676-131.616-6.299
	c-50.86-16.975-90.923-45.395-109.017-74.014l-61.585,184.524c-22.177,66.449,13.712,138.295,80.16,160.473h0.001
	c66.449,22.177,138.295-13.712,160.473-80.16L511.999,81.835L511.999,81.835z M369.019,314.036
	c-12.112-12.228-32.638-24.3-57.371-32.555c-24.733-8.255-48.394-10.931-65.424-8.427c0,0,13.41-50.538,77.918-29.008
	C388.651,265.575,369.019,314.036,369.019,314.036z"/>
<g>
	<path style="fill:#C76990;" d="M328.452,127.918c-3.074,0-6.03-1.705-7.483-4.646c-3.473-7.026-10.765-12.962-19.507-15.881
		c-8.743-2.918-18.139-2.551-25.136,0.982c-4.111,2.076-9.128,0.426-11.204-3.687c-2.076-4.113-0.426-9.128,3.687-11.204
		c11.045-5.576,24.872-6.274,37.935-1.914c13.063,4.359,23.699,13.22,29.18,24.311c2.041,4.129,0.348,9.131-3.781,11.173
		C330.953,127.64,329.694,127.918,328.452,127.918z"/>
	<path style="fill:#C76990;" d="M305.239,151.766c-3.074,0-6.03-1.705-7.483-4.646c-1.293-2.617-4.115-4.862-7.549-6.009
		c-3.434-1.145-7.039-1.045-9.644,0.27c-4.111,2.076-9.128,0.426-11.204-3.687c-2.076-4.112-0.426-9.128,3.687-11.204
		c6.588-3.326,14.768-3.764,22.444-1.203c7.675,2.561,13.951,7.825,17.222,14.439c2.042,4.129,0.348,9.131-3.781,11.173
		C307.741,151.488,306.48,151.766,305.239,151.766z"/>
	<path style="fill:#C76990;" d="M337.251,229.399c-15.446,0.001-32.195-8.96-40.593-22.77c-2.393-3.936-1.143-9.067,2.792-11.46
		c3.936-2.393,9.067-1.143,11.46,2.792c6.838,11.243,22.312,16.705,31.579,14.077c3.241-0.919,7.521-3.113,7.634-11.489
		c-2.15-16.577,3.877-50.78,41.907-66.219c10.989-5.424,24.669-6.064,37.602-1.748c13.064,4.36,23.7,13.223,29.182,24.315
		c2.041,4.129,0.348,9.131-3.782,11.173c-4.129,2.041-9.131,0.347-11.173-3.782c-3.473-7.027-10.765-12.964-19.508-15.882
		c-8.742-2.917-18.138-2.551-25.134,0.981c-0.214,0.108-0.43,0.206-0.652,0.295c-15.39,6.177-25.403,16.353-29.762,30.249
		c-3.215,10.249-2.097,18.765-2.085,18.849c0.057,0.384,0.086,0.771,0.088,1.158c0.089,14.09-7.3,24.614-19.765,28.149
		C343.906,228.976,340.608,229.399,337.251,229.399z"/>
	<path style="fill:#C76990;" d="M428.13,192.782c-3.074,0-6.03-1.705-7.483-4.647c-1.293-2.617-4.115-4.863-7.549-6.009
		c-3.433-1.145-7.038-1.044-9.644,0.27c-4.113,2.076-9.129,0.425-11.204-3.688c-2.076-4.113-0.425-9.128,3.688-11.204
		c6.587-3.325,14.767-3.763,22.442-1.202c7.676,2.562,13.953,7.826,17.223,14.442c2.041,4.13,0.348,9.131-3.782,11.173
		C430.631,192.504,429.371,192.782,428.13,192.782z"/>
</g>
<g style="opacity:0.1;">
	<path d="M243.143,197.167l55.316-165.742c-11.463-9.608-20.669-19.741-27.094-29.903l-61.585,184.524
		c-22.177,66.449,13.712,138.295,80.161,160.473l0,0c5.676,1.895,11.391,3.355,17.112,4.419
		C251.182,323.286,222.849,257.971,243.143,197.167z"/>
</g>
<path style="fill:#7DD2F0;" d="M253.682,189.106c-26.223,21.418-73.223,35.692-126.841,35.692S26.223,210.524,0,189.105v194.529
	c0,70.053,56.789,126.841,126.841,126.841h0.001c70.053,0,126.841-56.789,126.841-126.841L253.682,189.106L253.682,189.106z
	 M126.841,451.094c-68.006,0-64.727-57.545-64.727-57.545c15.36,8.563,38.652,14.025,64.727,14.025
	c26.074,0,49.366-5.461,64.727-14.025C191.568,393.549,194.848,451.094,126.841,451.094z"/>
<g>
	<path style="fill:#5CB6D6;" d="M32.609,291.358c-2.123,0-4.246-0.805-5.872-2.418c-3.271-3.244-3.294-8.524-0.05-11.796
		c8.711-8.787,21.607-13.825,35.379-13.825c13.771,0,26.664,5.039,35.377,13.823c3.244,3.271,3.222,8.552-0.05,11.796
		c-3.272,3.244-8.552,3.221-11.796-0.05C80.078,283.323,71.28,280,62.064,280c-9.217,0-18.014,3.323-23.533,8.889
		C36.901,290.535,34.755,291.358,32.609,291.358z"/>
	<path style="fill:#5CB6D6;" d="M47.078,321.328c-2.123,0-4.246-0.805-5.872-2.418c-3.272-3.243-3.294-8.524-0.051-11.795
		c5.196-5.241,12.817-8.246,20.908-8.246c8.09,0,15.712,3.005,20.907,8.245c3.244,3.271,3.222,8.552-0.05,11.796
		c-3.272,3.244-8.552,3.221-11.796-0.05c-2.055-2.072-5.443-3.31-9.062-3.31c-3.62,0-7.008,1.238-9.062,3.31
		C51.371,320.504,49.225,321.328,47.078,321.328z"/>
	<path style="fill:#5CB6D6;" d="M120.284,386.645c-11.2,0-22.811-3.757-31.359-10.989c-3.516-2.976-3.955-8.238-0.98-11.755
		c2.976-3.516,8.238-3.955,11.755-0.98c10.045,8.5,26.452,8.782,34.411,3.355c2.79-1.903,6.168-5.352,3.583-13.382
		c-1.181-2.57-5.233-12.293-5.466-25.102c-0.247-13.559,3.776-33.371,24.275-50.911c8.707-8.623,21.481-13.562,35.115-13.562
		c13.772,0,26.667,5.039,35.379,13.825c3.243,3.271,3.221,8.552-0.05,11.796c-3.271,3.244-8.552,3.221-11.796-0.05
		c-5.519-5.566-14.316-8.889-23.533-8.889c-9.216,0-18.012,3.323-23.532,8.888c-0.168,0.169-0.344,0.331-0.525,0.486
		c-29.663,25.177-15.273,55.419-14.646,56.693c0.158,0.321,0.315,0.693,0.43,1.031c4.546,13.337,0.869,25.658-9.836,32.959
		C137.011,384.49,128.766,386.645,120.284,386.645z"/>
	<path style="fill:#5CB6D6;" d="M206.604,321.328c-2.146,0-4.293-0.823-5.923-2.469c-2.055-2.073-5.443-3.31-9.062-3.31
		c-3.62,0-7.007,1.237-9.062,3.31c-3.244,3.271-8.524,3.293-11.796,0.05c-3.271-3.244-3.293-8.524-0.05-11.796
		c5.196-5.24,12.817-8.245,20.907-8.245c8.092,0,15.713,3.006,20.908,8.246c3.243,3.271,3.221,8.552-0.051,11.795
		C210.85,320.523,208.726,321.328,206.604,321.328z"/>
</g>
<g style="opacity:0.1;">
	<path d="M33.363,383.636V208.175C20.217,202.828,8.907,196.381,0,189.106v194.529c0,70.053,56.789,126.841,126.841,126.841l0,0
		c5.655,0,11.222-0.376,16.681-1.093C81.355,501.216,33.363,448.032,33.363,383.636z"/>
</g>
</svg>