<?xml version="1.0" encoding="iso-8859-1"?>
<!-- Uploaded to: SVG Repo, www.svgrepo.com, Generator: SVG Repo Mixer Tools -->
<svg height="800px" width="800px" version="1.1" id="Layer_1" xmlns="http://www.w3.org/2000/svg" xmlns:xlink="http://www.w3.org/1999/xlink" 
	 viewBox="0 0 512.006 512.006" xml:space="preserve">
<path style="fill:#FEDEA1;" d="M144.789,337.906c-11.042-10.547-29.585-31.898-29.585-56.311c0-23.27,16.068-43.469,29.542-56.32
	l8.849-8.431l8.832,8.448c13.491,12.902,29.577,33.135,29.577,56.303c0,23.287-16.068,43.486-29.542,56.32l-8.841,8.422
	L144.789,337.906z"/>
<g>
	<path style="fill:#BFA779;" d="M204.804,422.395c-23.279,0-43.469-16.068-56.32-29.542l-8.422-8.841l8.439-8.832
		c10.556-11.051,31.906-29.585,56.303-29.585c23.279,0,43.469,16.068,56.32,29.542l8.422,8.841l-8.439,8.832
		C250.551,403.861,229.201,422.395,204.804,422.395z"/>
	<path style="fill:#BFA779;" d="M294.413,332.803c-23.279,0-43.469-16.068-56.32-29.542l-8.422-8.841l8.439-8.832
		c10.547-11.051,31.906-29.585,56.303-29.585c23.279,0,43.469,16.068,56.32,29.542l8.422,8.841l-8.439,8.832
		C340.16,314.269,318.801,332.803,294.413,332.803z"/>
</g>
<g>
	<path style="fill:#FEDEA1;" d="M234.389,248.306c-13.491-12.902-29.577-33.135-29.577-56.303c0-23.287,16.068-43.486,29.542-56.32
		l8.841-8.422l8.832,8.431c11.042,10.547,29.585,31.898,29.585,56.311c0,23.27-16.068,43.469-29.542,56.32l-8.849,8.431
		L234.389,248.306z"/>
	<path style="fill:#FEDEA1;" d="M323.989,158.715c-11.051-10.556-29.585-31.906-29.585-56.311c0-23.27,16.068-43.469,29.542-56.32
		l8.841-8.422l8.832,8.431c11.051,10.556,29.585,31.906,29.585,56.311c0,23.27-16.068,43.469-29.542,56.32l-8.841,8.422
		L323.989,158.715z"/>
</g>
<path style="fill:#BFA779;" d="M384.004,243.203c-23.279,0-43.469-16.068-56.32-29.542l-8.422-8.841l8.439-8.832
	c10.556-11.051,31.906-29.585,56.303-29.585c23.279,0,43.469,16.068,56.32,29.542l8.422,8.841l-8.439,8.832
	C429.751,224.669,408.401,243.203,384.004,243.203z"/>
<path style="fill:#FEDEA1;" d="M419.52,105.015l-12.211-0.299l-0.273-12.211c-0.35-15.275,1.647-43.486,18.893-60.732
	c15.684-15.676,39.876-18.97,57.404-18.97l3.311,0.034l12.211,0.299l0.273,12.211c0.35,15.275-1.647,43.486-18.893,60.732
	c-15.676,15.676-39.876,18.97-57.412,18.97C422.822,105.049,419.52,105.015,419.52,105.015z"/>
<path style="fill:#573A32;" d="M500.186,1.002c-2.193-0.316-54.101-7.484-83.302,21.717c-23.603,23.603-23.433,61.611-22.332,76.646
	l-11.563,11.563c0.384-2.833,1.015-5.589,1.015-8.525c0-41.301-41.779-72.934-43.554-74.266c-4.548-3.379-10.752-3.379-15.3,0
	c-1.766,1.331-43.546,32.964-43.546,74.266c0,34.185,28.339,61.457,39.211,70.69l-27.426,27.426
	c0.393-2.833,1.024-5.589,1.024-8.525c0-41.301-41.779-72.934-43.554-74.266c-4.548-3.379-10.752-3.379-15.3,0
	c-1.775,1.331-43.554,32.973-43.554,74.274c0,34.185,28.339,61.457,39.211,70.69l-27.435,27.435
	c0.393-2.833,1.024-5.589,1.024-8.533c0-41.301-41.779-72.934-43.554-74.266c-4.548-3.379-10.752-3.379-15.3,0
	c-1.766,1.331-43.546,32.964-43.546,74.266c0,34.185,28.348,61.457,39.211,70.69L3.75,490.15c-5.001,5.001-5.001,13.099,0,18.099
	c2.5,2.509,5.777,3.755,9.054,3.755s6.554-1.246,9.054-3.746l112.265-112.265c9.242,10.871,36.506,39.211,70.69,39.211
	c41.301,0,72.934-41.779,74.266-43.554c3.379-4.548,3.379-10.752,0-15.3c-1.323-1.775-32.964-43.554-74.266-43.554
	c-2.935,0-5.692,0.631-8.516,1.024l27.426-27.426c9.233,10.871,36.506,39.211,70.69,39.211c41.301,0,72.934-41.779,74.266-43.554
	c3.379-4.548,3.379-10.752,0-15.3c-1.331-1.775-32.973-43.546-74.274-43.546c-2.935,0-5.692,0.631-8.525,1.024l27.426-27.426
	c9.242,10.863,36.514,39.202,70.699,39.202c41.301,0,72.934-41.779,74.266-43.554c3.379-4.548,3.379-10.752,0-15.3
	c-1.331-1.766-32.964-43.546-74.266-43.546c-2.935,0-5.692,0.631-8.525,1.024l37.163-37.163
	c15.036,1.092,53.043,1.263,76.646-22.332c29.201-29.201,22.033-81.118,21.717-83.311C510.17,6.216,505.792,1.838,500.186,1.002z
	 M153.63,328.648c-9.822-9.387-25.626-27.554-25.626-47.053c0-19.627,15.753-37.692,25.574-47.053
	c9.822,9.387,25.626,27.554,25.626,47.053C179.204,301.222,163.452,319.287,153.63,328.648z M204.804,358.395
	c19.627,0,37.692,15.753,47.053,25.574c-9.387,9.822-27.554,25.626-47.053,25.626c-19.627,0-37.692-15.753-47.053-25.574
	C167.138,374.199,185.306,358.395,204.804,358.395z M243.23,239.048c-9.822-9.387-25.626-27.554-25.626-47.053
	c0-19.627,15.753-37.692,25.574-47.053c9.822,9.387,25.626,27.554,25.626,47.053C268.804,211.622,253.06,229.687,243.23,239.048z
	 M294.404,268.803c19.627,0,37.692,15.753,47.053,25.574c-9.387,9.822-27.554,25.626-47.053,25.626
	c-19.627,0-37.692-15.753-47.053-25.574C256.747,284.599,274.906,268.803,294.404,268.803z M332.83,149.456
	c-9.822-9.387-25.626-27.554-25.626-47.053c0-19.627,15.753-37.692,25.574-47.053c9.822,9.387,25.626,27.554,25.626,47.053
	C358.404,122.03,342.652,140.095,332.83,149.456z M384.004,179.203c19.627,0,37.692,15.753,47.053,25.574
	c-9.387,9.822-27.554,25.626-47.053,25.626c-19.627,0-37.692-15.753-47.053-25.574C346.338,195.007,364.506,179.203,384.004,179.203
	z M471.181,77.025c-13.875,13.875-37.786,15.514-51.354,15.189c-0.307-13.585,1.357-37.598,15.147-51.388
	c13.875-13.875,37.786-15.514,51.354-15.189C486.643,39.223,484.971,63.235,471.181,77.025z"/>
</svg>