<?xml version="1.0" encoding="iso-8859-1"?>
<!-- Uploaded to: SVG Repo, www.svgrepo.com, Generator: SVG Repo Mixer Tools -->
<svg height="800px" width="800px" version="1.1" id="Layer_1" xmlns="http://www.w3.org/2000/svg" xmlns:xlink="http://www.w3.org/1999/xlink" 
	 viewBox="0 0 512.009 512.009" xml:space="preserve">
<circle style="fill:#F7B239;" cx="256.004" cy="256.004" r="256.004"/>
<path style="fill:#E09B2D;" d="M121.499,390.501C29.407,298.407,22.15,153.608,99.723,53.204
	c-8.593,6.638-16.861,13.895-24.743,21.777c-99.974,99.974-99.974,262.065,0,362.038s262.065,99.974,362.038,0
	c7.881-7.881,15.138-16.15,21.777-24.743C358.392,489.85,213.593,482.593,121.499,390.501z"/>
<path style="fill:#FFFFFF;" d="M123.163,274.382h258.092c0,14.486-2.391,28.415-6.794,41.421H129.957
	C125.554,302.798,123.163,288.868,123.163,274.382z"/>
<path style="fill:#A81004;" d="M129.956,315.803H374.46c-8.679,25.632-25.189,47.633-46.684,63.182
	c-9.033-15.22-25.632-25.417-44.622-25.417c-11.601,0-22.305,3.808-30.946,10.248c-8.641-6.44-19.357-10.248-30.958-10.248
	c-18.977,0-35.589,10.197-44.609,25.417C155.146,363.436,138.635,341.435,129.956,315.803z"/>
<path style="fill:#F95428;" d="M283.153,353.568c18.99,0,35.589,10.197,44.622,25.417c-21.242,15.384-47.355,24.443-75.568,24.443
	s-54.326-9.059-75.568-24.443c9.021-15.22,25.632-25.417,44.609-25.417c11.601,0,22.317,3.808,30.958,10.248
	C260.85,357.376,271.552,353.568,283.153,353.568z"/>
<g>
	<path style="fill:#4D4D4D;" d="M142.674,238.04c19.358,0,35.107-15.749,35.107-35.107s-15.749-35.107-35.107-35.107
		s-35.107,15.749-35.107,35.107S123.316,238.04,142.674,238.04z"/>
	<path style="fill:#4D4D4D;" d="M369.327,167.828c-19.358,0-35.107,15.749-35.107,35.107s15.749,35.107,35.107,35.107
		s35.107-15.749,35.107-35.107S388.684,167.828,369.327,167.828z"/>
</g>
</svg>