<?xml version="1.0" encoding="iso-8859-1"?>
<!-- Uploaded to: SVG Repo, www.svgrepo.com, Generator: SVG Repo Mixer Tools -->
<svg height="800px" width="800px" version="1.1" id="Layer_1" xmlns="http://www.w3.org/2000/svg" xmlns:xlink="http://www.w3.org/1999/xlink" 
	 viewBox="0 0 512 512" xml:space="preserve">
<path style="fill:#82C8DB;" d="M397.617,8.17l-43.574,495.66h43.574c23.966,0,43.574-19.609,43.574-43.574V8.17H397.617z"/>
<path style="fill:#A3DDE9;" d="M397.617,8.17H70.808l32.681,76.255v375.83c0,23.966,19.609,43.574,43.574,43.574h206.979
	c23.966,0,43.574-19.609,43.574-43.574L375.83,343.367l21.787-116.889V8.17z"/>
<path style="fill:#146A8A;" d="M367.551,255.68l-30.147,97.535l30.147,107.497c-0.02,0.031,29.986,0.081,29.986,0.081
	c0.031-0.02,0.06-0.05,0.081-0.081V245.637C382.794,245.637,374.977,250.528,367.551,255.68z"/>
<path style="fill:#2089B0;" d="M334.979,267.425c-31.319,0-31.319-21.788-62.638-21.788s-31.319,21.788-62.638,21.788
	s-31.319-21.788-62.638-21.788v215.075c0.02,0.031,0.05,0.06,0.081,0.081h220.406v-205.13
	C359.28,261.383,351.473,267.425,334.979,267.425z"/>
<path d="M441.191,0H70.808c-2.746,0-5.31,1.38-6.82,3.672c-1.512,2.293-1.771,5.192-0.688,7.717l32.02,74.714v374.152
	c0,28.531,23.213,51.745,51.745,51.745h250.553c28.531,0,51.745-23.213,51.745-51.745V8.17C449.362,3.658,445.704,0,441.191,0z
	 M433.021,460.255c0,19.521-15.883,35.404-35.404,35.404H147.064c-19.521,0-35.404-15.883-35.404-35.404V84.426
	c0-1.107-0.226-2.202-0.66-3.219L83.199,16.34h349.822V460.255z"/>
<path d="M141.948,466.563c1.463,1.205,3.299,1.863,5.194,1.863H397.54c1.923,0,3.783-0.678,5.255-1.914
	c0.41-0.344,0.79-0.728,1.13-1.139c1.205-1.463,1.863-3.299,1.863-5.194v-91.195c0-4.512-3.658-8.17-8.17-8.17
	c-4.512,0-8.17,3.658-8.17,8.17v83.102H155.234V253.927c7.827,1.367,12.689,4.75,18.481,8.779
	c8.326,5.792,17.763,12.357,35.984,12.357c18.222,0,27.659-6.564,35.985-12.357c7.573-5.268,13.556-9.431,26.652-9.431
	c13.097,0,19.08,4.161,26.654,9.431c8.326,5.792,17.763,12.357,35.986,12.357c18.222,0,27.659-6.564,35.985-12.357
	c5.794-4.031,10.656-7.413,18.484-8.78V336.3c0,4.512,3.658,8.17,8.17,8.17c4.512,0,8.17-3.658,8.17-8.17v-91.194
	c0-4.512-3.658-8.17-8.17-8.17c-18.223,0-27.66,6.564-35.986,12.357c-7.574,5.268-13.557,9.431-26.654,9.431
	c-13.097,0-19.08-4.161-26.654-9.431c-8.326-5.792-17.763-12.357-35.986-12.357c-18.222,0-27.659,6.564-35.985,12.357
	c-7.573,5.268-13.556,9.431-26.652,9.431c-13.097,0-19.079-4.161-26.652-9.431c-8.324-5.792-17.76-12.357-35.982-12.357
	c-4.512,0-8.17,3.658-8.17,8.17v215.07c0,1.928,0.681,3.793,1.924,5.267C141.161,465.85,141.541,466.226,141.948,466.563z"/>
</svg>