<?xml version="1.0" encoding="utf-8"?><!-- Uploaded to: SVG Repo, www.svgrepo.com, Generator: SVG Repo Mixer Tools -->
<svg width="800px" height="800px" viewBox="0 0 64 64" fill="none" xmlns="http://www.w3.org/2000/svg">
<path d="M56.92 57.351C56.7362 57.535 56.518 57.6809 56.2778 57.7804C56.0375 57.8799 55.78 57.9311 55.52 57.931C54.984 57.9316 54.4696 57.7194 54.09 57.341L41.45 44.551C42.4779 43.7031 43.4221 42.7588 44.27 41.731L56.94 54.531C57.1241 54.7173 57.2696 54.9381 57.3683 55.1808C57.4669 55.4234 57.5168 55.6832 57.5149 55.9451C57.513 56.207 57.4595 56.466 57.3575 56.7073C57.2554 56.9485 57.1067 57.1673 56.92 57.351Z" fill="#000000"/>
<path d="M27.56 6.12099C24.0677 6.11663 20.6257 6.95386 17.5256 8.5618C14.4255 10.1697 11.7585 12.501 9.75036 15.3583C7.74226 18.2155 6.45223 21.5146 5.9895 24.9761C5.52676 28.4376 5.90494 31.9597 7.09203 35.244C8.27913 38.5284 10.2402 41.4784 12.8091 43.8441C15.378 46.2099 18.4792 47.9218 21.85 48.8349C25.2209 49.748 28.7621 49.8354 32.1739 49.0897C35.5856 48.344 38.7675 46.7872 41.45 44.551C42.4779 43.7031 43.4221 42.7588 44.27 41.731C46.9088 38.5575 48.5888 34.6979 49.1134 30.6041C49.638 26.5103 48.9855 22.3517 47.2322 18.6154C45.4789 14.879 42.6975 11.7195 39.2135 9.50671C35.7295 7.29395 31.6873 6.11954 27.56 6.12099ZM37.42 29.861H17.69C17.1596 29.861 16.6509 29.6503 16.2758 29.2752C15.9007 28.9001 15.69 28.3914 15.69 27.861C15.69 27.3306 15.9007 26.8218 16.2758 26.4468C16.6509 26.0717 17.1596 25.861 17.69 25.861H37.42C37.9504 25.861 38.4591 26.0717 38.8342 26.4468C39.2093 26.8218 39.42 27.3306 39.42 27.861C39.42 28.3914 39.2093 28.9001 38.8342 29.2752C38.4591 29.6503 37.9504 29.861 37.42 29.861Z" fill="#999999"/>
</svg>