<?xml version="1.0" encoding="utf-8"?><!-- Uploaded to: SVG Repo, www.svgrepo.com, Generator: SVG Repo Mixer Tools -->
<svg width="800px" height="800px" viewBox="0 0 64 64" fill="none" xmlns="http://www.w3.org/2000/svg">
<path d="M57.64 57.351C57.4549 57.5359 57.235 57.6823 56.993 57.7819C56.751 57.8814 56.4917 57.9321 56.23 57.931C55.6973 57.9296 55.1868 57.7175 54.81 57.341L42.16 44.561C43.1912 43.7098 44.1388 42.7621 44.99 41.731L57.65 54.531C57.8347 54.7166 57.9811 54.9369 58.0806 55.1792C58.1801 55.4215 58.2308 55.6811 58.2299 55.943C58.229 56.205 58.1764 56.4642 58.0752 56.7057C57.9739 56.9473 57.826 57.1666 57.64 57.351Z" fill="#000000"/>
<path d="M28.27 6.12098C24.7788 6.11855 21.3385 6.95712 18.24 8.56573C15.1415 10.1743 12.4762 12.5057 10.4694 15.3624C8.46266 18.2192 7.17358 21.5173 6.71126 24.9777C6.24895 28.4381 6.62698 31.959 7.81341 35.2423C8.99983 38.5257 10.9597 41.475 13.5272 43.8406C16.0947 46.2062 19.1943 47.9185 22.5636 48.8326C25.933 49.7468 29.4729 49.8358 32.884 49.0923C36.295 48.3487 39.4768 46.7945 42.16 44.561C43.1912 43.7098 44.1388 42.7622 44.99 41.731C47.6293 38.5568 49.3095 34.6963 49.8338 30.6016C50.358 26.5069 49.7046 22.3476 47.9501 18.6108C46.1956 14.8741 43.4126 11.7147 39.9272 9.50268C36.4417 7.29066 32.3981 6.11762 28.27 6.12098ZM38.14 29.861H30.27V37.721C30.27 38.2514 30.0593 38.7601 29.6842 39.1352C29.3091 39.5103 28.8004 39.721 28.27 39.721C27.7395 39.721 27.2308 39.5103 26.8558 39.1352C26.4807 38.7601 26.27 38.2514 26.27 37.721V29.861H18.4C17.8696 29.861 17.3608 29.6503 16.9858 29.2752C16.6107 28.9001 16.4 28.3914 16.4 27.861C16.4 27.3305 16.6107 26.8218 16.9858 26.4468C17.3608 26.0717 17.8696 25.861 18.4 25.861H26.27V17.991C26.27 17.4605 26.4807 16.9518 26.8558 16.5768C27.2308 16.2017 27.7395 15.991 28.27 15.991C28.8004 15.991 29.3091 16.2017 29.6842 16.5768C30.0593 16.9518 30.27 17.4605 30.27 17.991V25.861H38.14C38.6704 25.861 39.1791 26.0717 39.5542 26.4468C39.9293 26.8218 40.14 27.3305 40.14 27.861C40.14 28.3914 39.9293 28.9001 39.5542 29.2752C39.1791 29.6503 38.6704 29.861 38.14 29.861Z" fill="#999999"/>
</svg>